<?xml version="1.0" encoding="UTF-8"?>
<!-- Generator: Adobe Illustrator 16.0.0, SVG Export Plug-In . SVG Version: 6.00 Build 0)  -->
<!DOCTYPE svg PUBLIC "-//W3C//DTD SVG 1.1//EN" "http://www.w3.org/Graphics/SVG/1.1/DTD/svg11.dtd">
<svg version="1.1" id="Ebene_1" xmlns="http://www.w3.org/2000/svg" xmlns:xlink="http://www.w3.org/1999/xlink" x="0px" y="0px" width="290px" height="200px" viewBox="0 0 290 200" enable-background="new 0 0 290 200" xml:space="preserve">
<g id="Ebene_4">
	<g>
		<path fill="#FFEC00" d="M101.541,116.876c0.239-0.067,0.484-0.035,0.725-0.035c11.736-0.002,23.471-0.002,35.208-0.003    c0.225,0,0.45-0.011,0.677-0.017c0.253,0.188,0.184,0.466,0.198,0.718c0.034,0.616-0.056,1.241,0.087,1.97    c2.613,0.012,5.215,0.009,7.833,0.002c0.162-0.663,0.061-1.251,0.094-1.833c0.02-0.287-0.062-0.597,0.168-0.841    c0.348,0.001,0.695,0.002,1.043,0.002c38.239,0,76.481,0,114.722,0c0.241,0,0.483,0,0.718,0c0.12,0.372,0.158,9.638,0.053,10.358    c-0.12,0.099-0.264,0.062-0.4,0.064c-0.226,0.007-0.451,0.003-0.679,0.003c-55.005,0-110.009,0-165.016,0    c-0.104,0-0.209,0-0.313,0.002c-0.382-0.251-0.494-0.66-0.666-1.012c0.202-0.292,0.434-0.181,0.649-0.17    c1.075,0.057,2.14,0.113,3.145-0.43c1.344-0.728,1.609-1.969,0.626-3.138c-0.292-0.351-0.655-0.616-1.032-0.865    c-0.172-0.113-0.366-0.208-0.41-0.451c0.117-0.229,0.367-0.229,0.571-0.299c0.756-0.265,1.498-0.541,2.061-1.156    c0.654-0.716,0.734-1.521,0.192-2.317C101.678,117.257,101.518,117.108,101.541,116.876z"/>
		<path fill="#0F0A0A" d="M101.541,116.876c0.171,0.236,0.379,0.447,0.518,0.711c0.392,0.745,0.301,1.51-0.269,2.167    c-0.382,0.44-0.867,0.737-1.394,0.973c-0.439,0.196-0.897,0.333-1.37,0.448c0.056,0.201,0.23,0.23,0.353,0.309    c0.513,0.334,0.992,0.701,1.349,1.204c0.713,1.007,0.543,2.084-0.448,2.825c-0.599,0.445-1.289,0.67-2.024,0.735    c-0.622,0.054-1.246,0.057-1.862-0.074c-0.098-0.021-0.2-0.06-0.312,0.006c0.191,0.362,0.385,0.725,0.578,1.087    c0.017,0.102,0.03,0.204,0.052,0.308c0.174,0.794-0.133,1.387-0.784,1.822c-0.56,0.378-1.197,0.541-1.858,0.604    c-1.686,0.158-3.275-0.138-4.763-1.041c-0.325,0.402-0.489,0.903-0.797,1.329c-0.388,0.018-0.784,0.044-1.181-0.016    c-0.066-0.212,0.069-0.366,0.162-0.527c0.305-0.526,0.62-1.046,0.938-1.563c0.321-0.521,0.457-0.574,1.014-0.282    c0.894,0.47,1.83,0.741,2.842,0.736c0.402-0.004,0.799-0.035,1.181-0.167c0.938-0.325,1.304-1.184,0.905-2.083    c-0.252-0.57-0.648-1.022-1.103-1.437c-0.134-0.121-0.329-0.207-0.332-0.465c0.238-0.153,0.459-0.005,0.678,0.059    c1.022,0.292,2.049,0.545,3.124,0.312c0.086-0.021,0.171-0.029,0.254-0.057c0.537-0.164,1.018-0.424,1.171-1.003    c0.16-0.607-0.156-1.088-0.574-1.479c-0.513-0.484-1.144-0.778-1.809-1.003c-0.205-0.068-0.45-0.079-0.558-0.367    c0.334-0.244,0.745-0.251,1.12-0.345c0.895-0.225,1.781-0.459,2.558-0.992c1.027-0.7,1.034-1.563-0.011-2.261    c-1.12-0.747-2.401-1-3.709-1.064c-0.915-0.049-1.84-0.083-2.754,0.079c-0.167,0.028-0.344,0.049-0.523-0.032    c-0.143-0.264,0.051-0.453,0.172-0.65c0.451-0.744,0.859-1.506,1.112-2.347c0.148-0.492,0.162-0.992,0.124-1.495    c-0.027-0.356-0.153-0.68-0.406-0.938c-0.339-0.346-0.901-0.382-1.138,0.021c-0.713,1.207-1.948,1.683-3.067,2.327    c-1.027,0.59-2.029,1.205-2.754,2.182c-0.957,1.286-1.222,2.739-1.056,4.29c0.09,0.842,0.088,0.918-0.681,1.295    c-2.901,1.409-5.413,3.363-7.796,5.512c-1.204,1.084-2.283,2.278-3.408,3.436c-0.119,0.121-0.209,0.282-0.402,0.311    c-0.441,0.05-0.881,0.05-1.321-0.001c-0.223-0.061-0.398-0.2-0.577-0.337c-2.554-1.964-5.385-3.396-8.529-4.447    c0.256,0.879,0.577,1.652,0.849,2.442c0.214,0.622,0.453,1.237,0.674,1.856c0.055,0.154,0.179,0.312,0.046,0.487    c-0.727,0.049-1.453,0.049-2.18,0c-0.241-0.203-0.305-0.5-0.398-0.777c-1.018-3.026-2.181-6.01-2.818-9.154    c-0.01-0.051-0.038-0.097-0.074-0.136c-0.118-0.084-0.233-0.023-0.348,0.01c-2.095,0.618-4.168,0.687-6.198-0.258    c-0.142-0.066-0.288-0.122-0.437-0.17c-0.626-0.209-0.725-0.313-0.61-0.93c0.074-0.396-0.071-0.646-0.507-0.75    c-0.78-0.188-1.495-0.56-2.212-0.911c-0.168-0.084-0.324-0.205-0.504-0.205c-0.173,0.046-0.248,0.165-0.324,0.281    c-1.695,2.593-3.964,4.633-6.323,6.588c-2.667,2.206-5.527,4.146-8.4,6.067c-0.235,0.156-0.48,0.275-0.753,0.344    c-0.971,0.072-1.943,0.016-2.916,0.03c-0.619,0.009-1.237,0-1.935,0c0.157-0.218,0.33-0.292,0.479-0.388    c2.506-1.623,5.045-3.195,7.497-4.898c3.033-2.107,5.892-4.417,8.369-7.172c0.709-0.788,1.386-1.602,2.019-2.44    c-0.339-2.918-0.375-5.797,0.662-8.631c0.407,0.188,0.632,0.559,1.003,0.785c0.405-0.062,0.831-0.13,1.274-0.199    c0.181-0.591,0.267-1.189,0.365-1.785c0.366-2.196,0.622-4.403,0.554-6.633c-0.014-0.452-0.071-0.9-0.09-1.352    c-0.009-0.231-0.134-0.379-0.283-0.533c-0.782-0.799-1.459-1.678-1.933-2.698c-1.036-2.236-0.965-4.4,0.466-6.461    c0.029-0.042,0.05-0.089,0.085-0.152c-0.251-0.346-0.511-0.692-0.756-1.045c-1.272-1.829-2.226-3.798-2.608-6.013    c-0.613-3.561,0.32-6.666,2.788-9.305c0.464-0.496,0.968-0.948,1.515-1.351c0.108-0.081,0.199-0.201,0.371-0.199    c0.39,0.34,0.399,0.809,0.385,1.367c1.505-1.101,3.049-1.998,4.872-2.296c0.338,0.486,0.106,0.913-0.108,1.41    c1.286-0.32,2.527-0.607,3.874-0.423c-0.165,0.625-0.742,0.748-1.203,1.092c1.11,0.279,2.144,0.646,3.089,1.199    c0.183-0.021,0.283-0.153,0.408-0.238c1.336-0.92,2.715-0.97,4.116-0.18c1.181,0.668,2.06,1.64,2.686,2.835    c0.157,0.302,0.362,0.528,0.624,0.739c1.802,1.458,3.005,3.292,3.454,5.591c0.127,0.653,0.081,1.313,0.058,2.009    c0.712,0.219,1.442,0.335,2.171,0.454c1.996,0.328,3.98,0.174,5.961-0.145c1.853-0.299,3.713-0.508,5.59-0.573    c1.006-0.034,2.011-0.135,3.019-0.103c1.166,0.036,2.322,0.135,3.438,0.508c0.229,0.076,0.459,0.16,0.676,0.264    c1.474,0.698,2.204,1.935,2.124,3.56c-0.036,0.75-0.166,1.484-0.403,2.194c-0.784,2.349-1.83,4.571-3.284,6.587    c-1.738,2.409-3.928,4.247-6.745,5.278c-1.531,0.561-3.118,0.812-4.741,0.868c-0.12,0.004-0.241,0-0.408,0    c0.113,0.392,0.242,0.741,0.313,1.103c0.379,1.93-0.035,3.721-0.97,5.417c-0.024,0.045-0.047,0.096-0.083,0.132    c-0.342,0.371-0.308,0.791-0.257,1.261c0.243,2.242,0.062,4.409-1.288,6.329c-0.179,0.256-0.38,0.495-0.571,0.741    c-0.686,1.035-1.718,1.49-2.887,1.632c-1.423,0.173-2.521-0.463-3.397-1.541c-0.78-1.125-1.186-2.387-1.305-3.738    c-0.028-0.324-0.136-0.494-0.459-0.59c-2.444-0.728-4.366-2.217-5.969-4.156c-0.222-0.269-0.465-0.516-0.709-0.761    c-0.059-0.061-0.113-0.131-0.274-0.139c-0.141,0.805-0.252,1.505,0.346,2.303c1.611,2.147,1.934,4.547,0.958,7.085    c-0.249,0.557-0.573,1.07-0.968,1.533c-0.222,0.261-0.29,0.525-0.21,0.863c0.213,0.911,0.436,1.819,0.657,2.729    c0.083,0.336,0.252,0.543,0.601,0.633c3.375,0.868,6.348,2.559,9.19,4.515c0.463,0.362,0.952,0.69,1.42,1.045    c0.054,0.043,0.118,0.071,0.274,0.071c0.29-0.308,0.534-0.723,0.83-1.095c2.046-2.745,4.508-5.037,7.453-6.801    c0.492-0.293,1.014-0.532,1.528-0.783c0.306-0.151,0.429-0.332,0.378-0.695c-0.076-0.53-0.076-1.073,0.046-1.606    c0.04-0.171,0.074-0.339,0.212-0.464c0.48-1.659,1.458-2.971,2.814-4.016c0.274-0.211,0.559-0.413,0.876-0.557    c1.466-0.667,2.748-1.605,3.944-2.672c0.522-0.465,1.077-0.869,1.785-1.014c0.724-0.149,1.3,0.088,1.742,0.657    c0.359,0.466,0.518,1.013,0.568,1.593c0.114,1.319-0.214,2.541-0.822,3.7c-0.086,0.162-0.166,0.329-0.265,0.527    c0.67,0,1.288-0.005,1.906,0c1.15,0.014,2.279,0.167,3.385,0.485C99.956,115.828,100.8,116.254,101.541,116.876z"/>
		<polygon fill="#006039" points="126.506,93.884 126.506,114.063 117.544,114.063 117.544,106.588 113.018,106.588     113.018,114.063 104.052,114.063 104.052,93.884 113.018,93.884 113.018,101.206 117.544,101.206 117.544,93.884   "/>
		<path fill="#006039" d="M225.759,114.063V98.155h8.242v1.901c0.207-0.18,0.308-0.289,0.432-0.396    c2.19-1.872,4.657-2.104,7.265-1.126c1.665,0.622,2.491,1.984,2.825,3.667c0.23,1.162,0.216,2.348,0.218,3.529v8.333h-7.812    v-8.267c-0.001-0.59-0.008-1.181-0.1-1.765c-0.161-1.033-0.692-1.417-1.713-1.201c-0.394,0.084-0.761,0.236-1.116,0.498v10.735    L225.759,114.063L225.759,114.063z"/>
		<path fill="#6AAF23" d="M72.6,130.274c0.574-0.742,1.237-1.405,1.893-2.073c2.464-2.518,5.139-4.774,8.198-6.546    c0.677-0.393,1.375-0.738,2.09-1.082c0.084-0.274-0.002-0.547-0.029-0.819c-0.162-1.705,0.131-3.287,1.262-4.638    c0.693-0.827,1.574-1.41,2.503-1.928c0.591-0.329,1.188-0.649,1.776-0.984c0.519-0.297,0.943-0.677,1.24-1.224    c0.38-0.701,1.199-0.681,1.639,0.013c0.389,0.614,0.361,1.295,0.234,1.967c-0.196,1.042-0.688,1.958-1.243,2.845    c-0.088,0.142-0.242,0.254-0.232,0.487c0.934-0.151,1.866-0.195,2.802-0.177c1.156,0.023,2.279,0.216,3.355,0.646    c0.486,0.195,0.942,0.446,1.312,0.827c0.598,0.618,0.579,1.273-0.056,1.86c-0.36,0.334-0.791,0.559-1.243,0.747    c-0.886,0.371-1.818,0.572-2.77,0.762c0.082,0.142,0.221,0.146,0.341,0.184c0.602,0.183,1.172,0.431,1.683,0.803    c0.297,0.217,0.56,0.47,0.75,0.785c0.473,0.786,0.271,1.546-0.538,1.979c-0.649,0.347-1.354,0.406-2.076,0.347    c-0.832-0.066-1.636-0.276-2.535-0.565c0.297,0.283,0.518,0.485,0.732,0.694c0.363,0.356,0.666,0.758,0.855,1.233    c0.352,0.881,0.048,1.668-0.808,2.083c-0.513,0.246-1.061,0.303-1.623,0.288c-0.993-0.029-1.906-0.343-2.785-0.777    c-0.153-0.075-0.288-0.196-0.512-0.209c-0.491,0.812-0.993,1.642-1.492,2.47c-0.138,0.007-0.276,0.021-0.415,0.021    c-4.631,0.002-9.264,0.002-13.895,0C72.877,130.298,72.738,130.282,72.6,130.274z"/>
		<path fill="#6AAF23" d="M31.656,130.273c1.035-0.698,2.075-1.392,3.104-2.096c2.81-1.927,5.555-3.938,8.074-6.238    c1.672-1.528,3.235-3.153,4.421-5.104c0.017-0.027,0.049-0.047,0.112-0.106c1.082,0.575,2.189,1.147,3.435,1.418    c0.074,0.422-0.03,0.831-0.033,1.272c0.44,0.231,0.93,0.351,1.386,0.552c1.938,0.854,3.893,0.654,5.854,0.093    c0.116-0.034,0.23-0.073,0.384-0.124c0.137,0.603,0.268,1.188,0.409,1.771c0.56,2.332,1.405,4.576,2.186,6.839    c0.198,0.571,0.385,1.148,0.576,1.725c-0.156,0.008-0.311,0.021-0.467,0.021c-6.47,0.001-12.941,0.001-19.411,0    c-0.156,0-0.312-0.015-0.467-0.022c-0.165-0.128-0.19-0.324-0.235-0.507c-0.432-1.741-2.049-2.283-3.355-2.085    c-1.588,0.242-2.859,1.076-3.958,2.208c-0.142,0.147-0.242,0.344-0.47,0.384C32.686,130.311,32.171,130.312,31.656,130.273z"/>
		<path fill="#006039" d="M176.271,98.146h8.221v3.242c0.186-0.176,0.232-0.342,0.31-0.487c0.353-0.664,0.77-1.28,1.335-1.785    c1.148-1.023,2.493-1.361,3.97-0.979c1.513,0.39,2.388,1.436,2.654,2.957c0.394,2.261-0.677,3.894-2.415,4.456    c-1.352,0.438-2.64,0.278-3.828-0.521c-0.287-0.193-0.547-0.426-0.845-0.662c-0.545,0.458-0.827,1.073-0.979,1.755    c-0.129,0.577-0.2,1.165-0.202,1.758v6.187h-8.22L176.271,98.146L176.271,98.146z"/>
		<path fill="#FFEC00" d="M70.91,127.286c-1.042-0.65-2.055-1.353-3.128-1.954c-2.048-1.149-4.167-2.126-6.474-2.642    c-0.032-0.007-0.06-0.03-0.123-0.066c-0.353-1.259-0.66-2.552-0.923-3.902c0.57-0.53,0.984-1.186,1.326-1.89    c0.237-0.134,0.496-0.137,0.758-0.137c2.044,0,4.089-0.001,6.134,0c0.244,0,0.487-0.001,0.706,0.131    c0.107,0.112,0.215,0.225,0.321,0.337c1.121,1.188,2.624,1.497,4.14,0.866c0.669-0.28,1.213-0.729,1.736-1.212    c0.776,0.006,1.552,0.017,2.329,0.02c1.795,0.01,3.589,0.014,5.384,0.018c-0.192,0.872-0.215,1.747-0.056,2.636    c-1.344,0.57-2.567,1.29-3.723,2.12c-2.075,1.488-3.87,3.263-5.44,5.271c-0.106,0.136-0.222,0.263-0.334,0.393    C72.666,127.594,71.789,127.532,70.91,127.286z"/>
		<path fill="#006039" d="M223.987,98.191v15.872h-8.195V98.194C218.51,99.269,221.241,99.37,223.987,98.191z"/>
		<path fill="#006039" d="M136.415,114.063h-8.203V98.188c2.727,1.075,5.453,1.187,8.203,0.004V114.063z"/>
		<path fill="#6AAF23" d="M63.742,130.275c-0.596-1.624-1.218-3.237-1.735-4.876c0.067-0.084,0.134-0.066,0.201-0.044    c3.198,1.064,6.164,2.568,8.812,4.672c0.092,0.073,0.173,0.163,0.26,0.246c-0.399,0.008-0.796,0.022-1.193,0.022    c-1.925,0.002-3.85,0.002-5.774,0C64.123,130.298,63.932,130.283,63.742,130.275z"/>
		<path fill="#006039" d="M221.628,98.232c-1.276,0.004-2.303-1.018-2.318-2.312c-0.015-1.269,1.031-2.327,2.302-2.327    c1.313,0.001,2.36,0.997,2.372,2.257C223.996,97.199,222.979,98.225,221.628,98.232z"/>
		<path fill="#006039" d="M134.041,98.232c-1.27-0.004-2.292-1.044-2.295-2.338c-0.005-1.258,1.061-2.308,2.333-2.301    c1.31,0.009,2.341,1.014,2.343,2.285C136.42,97.227,135.4,98.236,134.041,98.232z"/>
		<path fill="#FFEC00" d="M33.201,130.273c1.003-1.283,2.269-2.183,3.848-2.615c0.627-0.172,1.263-0.207,1.902-0.054    c1.116,0.271,1.811,0.978,2.142,2.059c0.061,0.197,0.085,0.406,0.126,0.609c-0.173,0.009-0.347,0.023-0.52,0.023    c-2.327,0.002-4.653,0.002-6.98,0C33.546,130.298,33.374,130.282,33.201,130.273z"/>
		<path fill="#FFEC00" d="M57.078,91.361c0.521-0.554,0.932-0.668,2.066-0.595c-0.209-0.353-0.558-0.43-0.883-0.451    c-1.128-0.067-2.044,0.38-2.676,1.308c-0.599,0.878-0.5,1.805-0.019,2.71c0.015,0.028,0.053,0.044,0.114,0.091    c-0.021-0.791-0.038-1.562,0.55-2.204c0.236,0.107,0.399,0.289,0.573,0.448c1.314,1.214,2.225,2.703,2.89,4.344    c0.575,1.414,1.098,2.848,1.664,4.266c0.886,2.217,2.117,4.214,3.873,5.86c0.763,0.717,1.59,1.346,2.462,1.934    c0.103,0.633,0.151,1.271,0.114,1.938c-0.753-0.112-1.412-0.403-2.042-0.77c-0.984-0.574-1.836-1.306-2.566-2.183    c-3.024-3.631-6.395-6.904-10.124-9.805c-0.467-0.363-0.948-0.704-1.432-1.042c-1.065-0.743-2.001-1.612-2.661-2.746    c-1.113-1.914-1.009-4.054,0.288-5.714c0.86-1.099,1.998-1.759,3.362-2.017c1.799-0.341,3.443,0.111,4.984,1.028    c1.566,0.93,2.78,2.234,3.834,3.7c0.152,0.21,0.299,0.425,0.481,0.622c-0.248-0.721-0.624-1.379-1.034-2.076    c2.573-0.885,3.103-2.929,3.032-5.32c0.156-0.063,0.242,0.077,0.347,0.142c0.789,0.488,1.618,0.866,2.55,0.993    c1.498,0.202,2.704-0.24,3.529-1.556c0.018-0.028,0.05-0.049,0.104-0.099c0.638,0.178,1.296,0.382,1.973,0.525    c1.597,0.334,3.21,0.377,4.822,0.219c2.141-0.21,4.271-0.53,6.413-0.734c1.764-0.167,3.537-0.218,5.301,0.047    c0.361,0.054,0.71,0.154,1.052,0.284c1.406,0.54,2,1.66,1.832,3.138c-0.077,0.676-0.25,1.333-0.521,1.954    c-1.127,2.585-2.609,4.946-4.607,6.946c-2.108,2.111-4.678,3.312-7.647,3.655c-2.743,0.317-5.398-0.103-8.01-0.913    c-3.307-1.025-6.348-2.604-9.249-4.471C60.179,93.768,58.61,92.621,57.078,91.361z"/>
		<path fill="#E20040" d="M62.087,99.376c0.374-0.069,0.723,0.059,1.07,0.138c2.069,0.466,3.824,1.523,5.392,2.916    c1.77,1.572,3.187,3.43,4.367,5.474c0.07,0.12,0.137,0.242,0.209,0.359c0.017,0.029,0.043,0.052,0.092,0.064    c-0.631-1.954-1.595-3.734-2.874-5.343c-1.292-1.622-2.831-2.953-4.693-3.887c0.072-0.173,0.214-0.138,0.318-0.132    c0.605,0.036,1.203,0.076,1.775,0.336c1.043,0.471,2.109,0.892,3.206,1.228c0.166,0.051,0.319,0.113,0.446,0.25    c2.078,2.271,3.747,4.785,4.513,7.808c0.513,2.028,0.392,4.026-0.447,5.963c-0.238,0.546-0.562,1.037-1,1.447    c-0.982,0.921-2.23,0.932-3.229,0.025c-0.646-0.587-1.049-1.335-1.343-2.142c-0.363-0.999-0.59-2.029-0.72-3.085    c-0.183-1.482-0.418-2.955-1.004-4.346c-0.39-0.924-0.914-1.751-1.843-2.432c0.38,0.867,0.732,1.625,0.898,2.486    C65.314,105.208,62.777,102.049,62.087,99.376z"/>
		<path fill="#6AAF23" d="M59.999,74.005c0.556-0.99,1.34-1.572,2.481-1.548c1.133,0.022,2.018,0.514,2.658,1.504    c-0.167,0.109-0.294,0.04-0.417,0.011c-0.613-0.15-1.228-0.222-1.855-0.096c-1.468,0.292-2.431,1.288-2.66,2.766    c-0.05,0.325-0.079,0.651-0.12,0.992c-0.207-0.019-0.33-0.182-0.48-0.286c-0.911-0.626-1.886-1.086-2.992-1.27    c-1.89-0.315-3.934,0.617-4.535,3.103c-0.346,1.429-0.167,2.827,0.261,4.208c0.164,0.528,0.395,1.029,0.643,1.584    c-1.576,0.077-2.993,0.487-4.212,1.343c-0.13,0.015-0.178-0.041-0.215-0.096c-1.13-1.684-2.059-3.457-2.463-5.47    c-0.668-3.332,0.718-6.235,3.773-7.741c1.999-0.985,4.096-1.267,6.275-0.662c0.115,0.031,0.239,0.048,0.336,0.18    c-2.15,0.336-3.793,1.327-4.554,3.479c2.637-2.018,5.474-2.599,8.603-1.273C60.392,74.391,60.392,74.391,59.999,74.005z"/>
		<path fill="#FFFFFF" d="M60.456,89.338c-1.431-1.991-3.191-3.5-5.638-4.13c-0.38-0.618-0.62-1.318-0.809-2.037    c-0.316-1.212-0.406-2.429-0.064-3.649c0.046-0.167,0.103-0.333,0.169-0.491c0.683-1.639,2.152-2.337,3.856-1.829    c1.061,0.315,1.939,0.927,2.683,1.724c1.754,1.88,2.716,4.084,2.665,6.683c-0.014,0.698-0.174,1.375-0.489,2.005    C62.347,88.583,61.59,89.177,60.456,89.338z"/>
		<path fill="#6AAF23" d="M58.678,105.452c-0.227,0.886-0.269,1.747-0.27,2.665c-1.228-0.476-2.442-0.319-3.652-0.256    c-0.885,0.048-1.769,0.081-2.654,0.122c-0.101,0.006-0.21-0.018-0.311,0.062c-0.183,0.655-0.083,1.362-0.261,2.043    c-0.549-0.093-1.021-0.298-1.52-0.562c0.688-3.485,1.25-6.981,0.978-10.683C53.757,100.926,56.274,103.091,58.678,105.452z"/>
		<path fill="#FFFFFF" d="M61.256,78.665c-0.051-0.73,0.016-1.449,0.291-2.14c0.573-1.448,1.912-2.155,3.439-1.818    c1.143,0.25,2.077,0.865,2.86,1.704c1.392,1.491,2.177,3.238,2.152,5.306c-0.005,0.438-0.09,0.865-0.224,1.277    c-0.524,1.623-1.98,2.437-3.643,2.04c-0.79-0.188-1.48-0.577-2.113-1.079c-0.13-0.103-0.204-0.224-0.249-0.381    C63.129,81.327,62.803,80.694,61.256,78.665z"/>
		<path fill="#FFEC00" d="M54.489,109.907c0.864-0.082,1.709-0.171,2.555-0.244c1.847-0.157,3.657,1.016,3.996,3.293    c0.324,2.167-0.455,3.937-2.158,5.267c-1.548,1.209-3.366,1.445-5.261,1.313C53.559,119.073,54.373,110.671,54.489,109.907z"/>
		<path fill="#006039" d="M46.676,114.257c-0.091-1.396,0.034-2.728,0.43-4.114c1.414,0.74,2.795,1.441,4.315,1.846    c-0.145,1.433-0.224,2.828-0.427,4.269C49.413,115.822,47.972,115.193,46.676,114.257z"/>
		<path fill="#006039" d="M64.979,98.046c-0.448,0.164-0.878,0.119-1.252,0.306c-0.043,0.021-0.103,0.02-0.151,0.009    c-0.61-0.121-1.225-0.189-1.851-0.138c-0.507-0.979-0.93-1.957-1.477-2.893C61.795,96.266,63.353,97.162,64.979,98.046z"/>
		<path fill="#FFEB00" d="M76.719,107.062c-0.212-0.245-0.234-0.534-0.366-0.769c-0.397-0.7-0.538-1.408-0.325-2.224    c0.193-0.733,0.161-1.508,0.087-2.272c0.2-0.067,0.363-0.036,0.564,0.028C77.291,103.539,77.4,105.27,76.719,107.062z"/>
		<path fill="#FDFDFD" d="M70.91,127.286c0.878-0.044,1.755-0.024,2.633-0.012c-0.291,0.426-0.582,0.853-0.904,1.326    C72.051,128.156,71.48,127.719,70.91,127.286z"/>
		<path fill="#006038" d="M73.342,101.24c0.588,0.122,1.091,0.225,1.609,0.33c0.132,0.557-0.053,1.051-0.169,1.564    C74.303,102.513,73.874,101.891,73.342,101.24z"/>
		<path fill="#006039" d="M214.606,102.167c-0.706-3.947-3.09-6.5-6.889-7.731c-1.416-0.46-2.895-0.559-4.372-0.571h-9.768v20.198    h7.359c1.7-0.011,3.404,0.046,5.095-0.22c1.77-0.28,3.457-0.803,4.879-1.939C214.052,109.391,215.311,106.111,214.606,102.167z     M205.799,103.916c-0.021,1.327-0.676,2.039-2.002,2.215c-0.274,0.036-0.551,0.058-0.828,0.08c-0.119,0.008-0.239,0-0.408,0    v-4.637c0.851,0.017,1.678,0.021,2.413,0.482C205.654,102.487,205.81,103.18,205.799,103.916z"/>
		<path fill="#006039" d="M156.528,101.781c-1.985-3.85-6.531-4.812-9.72-2.682c-0.079,0.054-0.188,0.114-0.316,0.203    c0-0.013,0-1.129,0-1.129h-8.304v21.476h8.342v-6.08c0.188,0,0.327,0.08,0.472,0.131c0.808,0.277,1.634,0.454,2.49,0.495    c3.057,0.147,5.818-1.501,7.118-4.26c0.456-0.966,0.721-1.988,0.819-3.051C157.597,105.104,157.356,103.389,156.528,101.781z     M149.258,107.596c-0.289,0.57-0.808,0.794-1.427,0.772c-0.453-0.016-0.89-0.126-1.322-0.397v-2.812    c0.38-0.461,0.823-0.719,1.406-0.726c0.577-0.006,1.018,0.236,1.297,0.724C149.669,105.951,149.669,106.782,149.258,107.596z"/>
		<path fill="#006039" d="M263.089,104.636c-0.448-2.742-1.871-4.827-4.416-5.975c-3.095-1.397-6.195-1.194-9.161,0.425    c-1.767,0.963-2.924,2.484-3.486,4.424c-0.402,1.377-0.41,2.779-0.136,4.178c0.513,2.636,1.921,4.617,4.372,5.789    c1.273,0.61,2.635,0.847,3.969,0.826c1.209,0.003,2.325-0.127,3.411-0.465c2.436-0.756,4.205-2.245,5.08-4.683    C263.25,107.689,263.34,106.169,263.089,104.636z M254.466,107.693c-0.986,0.009-1.78-0.776-1.796-1.777    c-0.014-1.055,0.759-1.805,1.858-1.803c1.036,0.005,1.706,0.715,1.709,1.812C256.24,106.951,255.507,107.682,254.466,107.693z"/>
		<path fill="#006039" d="M175.009,104.958c-0.468-3.042-2.007-5.281-4.891-6.499c-1.961-0.827-3.984-0.857-6.028-0.38    c-2.743,0.637-4.548,2.339-5.518,4.953c-0.571,1.546-0.573,3.139-0.241,4.725c0.6,2.87,2.245,4.896,5.028,5.889    c2.662,0.949,5.352,0.916,8.007-0.053c1.522-0.554,2.736-1.546,3.703-2.787l-0.002-2.82c0,0-0.131,0.133-0.159,0.156    c-1.375,1.243-3.02,1.659-4.82,1.52c-0.907-0.069-1.713-0.438-2.38-1.066c-0.419-0.396-0.764-0.844-0.958-1.467h8.349    C175.099,107.129,175.115,105.663,175.009,104.958z M166.311,104.281c-0.195-1.402,0.808-2.551,1.946-2.451    c0.479,0.042,0.87,0.236,1.171,0.595c0.439,0.526,0.608,1.15,0.639,1.856H166.311z"/>
		<path fill="#110D0C" d="M85.781,86.208c0.263-0.007,0.519,0.022,0.769,0.108c0.754,0.26,0.934,0.816,0.464,1.454    c-0.177,0.241-0.381,0.462-0.634,0.612c-0.431,0.258-0.727,0.618-0.971,1.05c-0.23,0.411-0.553,0.756-0.926,1.049    c-0.275,0.217-0.577,0.386-0.917,0.48c-1.198,0.327-2.145-0.599-1.839-1.797c0.069-0.271,0.172-0.531,0.335-0.76    c0.75-1.057,1.744-1.77,2.997-2.121C85.296,86.219,85.538,86.214,85.781,86.208z"/>
		<path fill="#100C0C" d="M58.716,84.938c-0.014-0.289,0.093-0.812,0.34-1.303c0.662-1.319,2.055-1.497,3.002-0.367    c0.658,0.785,0.885,1.717,0.812,2.723c-0.039,0.522-0.18,1.023-0.471,1.473c-0.652,1.009-1.798,1.157-2.662,0.325    C59.005,87.084,58.731,86.19,58.716,84.938z"/>
		<path fill="#110D0D" d="M68.658,82.286c0.006,0.624-0.13,1.21-0.47,1.732c-0.595,0.915-1.652,1.061-2.453,0.324    c-0.798-0.735-1.044-1.694-0.998-2.741c0.024-0.523,0.163-1.025,0.46-1.471c0.625-0.936,1.675-1.066,2.489-0.289    C68.38,80.504,68.632,81.354,68.658,82.286z"/>
		<path fill="#110E0B" d="M55.858,112.133c1.112-0.085,2.158-0.003,2.961,0.88c0.554,0.607,0.61,1.527,0.181,2.279    c-0.255,0.45-0.625,0.786-1.083,1.018c-0.744,0.375-1.536,0.49-2.428,0.398c0.064-0.785,0.125-1.539,0.186-2.292    C55.735,113.675,55.794,112.933,55.858,112.133z"/>
		<path fill="#FCFCFB" d="M83.884,88.48c0.156-0.417,0.348-0.817,0.694-1.12c0.291-0.251,0.6-0.275,0.844-0.079    c0.237,0.189,0.291,0.446,0.093,0.676c-0.346,0.405-0.812,0.625-1.321,0.751C84.064,88.744,83.963,88.672,83.884,88.48z"/>
		<path fill="#FDFDFD" d="M61.776,85.64c0.012,0.244-0.032,0.499-0.168,0.729c-0.192,0.327-0.457,0.358-0.722,0.093    c-0.402-0.401-0.529-1.48-0.23-1.964c0.205-0.337,0.499-0.364,0.757-0.049C61.688,84.786,61.781,85.188,61.776,85.64z"/>
		<path fill="#FDFDFD" d="M66.441,81.78c-0.004-0.154,0.034-0.427,0.189-0.669c0.195-0.304,0.476-0.332,0.736-0.077    c0.436,0.427,0.565,1.524,0.241,2.051c-0.212,0.345-0.487,0.382-0.758,0.079C66.531,82.81,66.442,82.372,66.441,81.78z"/>
		<path fill="#69AE24" d="M56.644,113.901c0.475-0.12,0.766,0.06,0.974,0.397c0.223,0.364,0.287,0.758,0.051,1.132    c-0.271,0.428-0.698,0.52-1.221,0.465C56.446,115.22,56.564,114.577,56.644,113.901z"/>
	</g>
</g>
</svg>