<?xml version="1.0" encoding="UTF-8"?>
<!-- Generator: Adobe Illustrator 25.2.3, SVG Export Plug-In . SVG Version: 6.00 Build 0)  -->
<svg version="1.1" id="Ebene_1" xmlns="http://www.w3.org/2000/svg" xmlns:xlink="http://www.w3.org/1999/xlink" x="0px" y="0px" width="290px" height="200px" viewBox="0 0 290 200" style="enable-background:new 0 0 290 200;" xml:space="preserve">
<style type="text/css">
	.st0{fill:#B0BC14;}
	.st1{fill:#056830;}
	.st2{fill:#B1BC15;}
	.st3{fill:#F9A100;}
	.st4{fill:#01783A;}
	.st5{fill:#89143D;}
	.st6{fill:#B0BC13;}
	.st7{fill:#DD3712;}
	.st8{fill:#01773A;}
</style>
<g id="Ebene_4">
	<path class="st0" d="M127.7,78c-0.7,0-4-0.8-5.9-1.3c-0.7-0.2-0.9-0.9-0.6-1.5c0.4-0.8,0.3-1.5-0.3-2.2c-0.4-0.5-0.7-1.2-0.5-1.9   c0.2-1.2,1.4-1.9,2.8-1.4c1.2,0.4,2.3,0.7,3.5,0c0.6-0.4,1.4,0.1,2,0.5c0.6,0.4,1.2,0.6,1.9,0.1c0.5-0.4,0.7,0.1,0.8,0.4   c0.3,0.5,0.4,1.1,0.4,1.7c0,0.8,0,1.7,0.4,2.5c0.4,0.7,0.1,1-0.5,1.1c-1,0.2-1.5,0.2-2.4,1C128.8,77.4,128.4,78,127.7,78z"/>
	<path class="st1" d="M117.2,73.3c0.6,0,1.2,0.2,1.8,0.4c0.8,0.3,1.4,0.6,1,1.7c-0.5,1.3,0.2,1.7,1.3,2.3c1.7,0.8,3.5,1.1,5.3,1.5   c0.2,0,0.4,0.1,0.5,0.2c0.3,0.1,0.3,0.2,0.2,0.6c-0.2,0.3-0.3,0.5-0.4,0.7c-0.1,0.1-0.2,0.1-0.7,0c-3.3-0.6-6.5-0.3-9.5,1.2   c-1.4,0.7-2.7,0.1-3.1-1.4c-0.2-0.6-0.6-0.9-1-1.2c-1.4-0.9-1.3-2.4,0.2-3.2c0.4-0.2,0.9-0.4,1.4-0.6c0.5-0.2,0.9-0.4,1-0.9   C115.4,73.4,116.3,73.3,117.2,73.3z"/>
	<path class="st2" d="M123.2,81.2c1.1,0,1.7,0.1,2.6,0.2c0.3,0.1,0.6,0.1,0.7,0.3c0,0.1,0.3,0.7,0.3,0.9c0,0.2-0.5,0.2-0.8,0.2   c-3.8-0.2-5.2,0.5-7.8,2.8c-0.6,0.5-1.1,0.5-1.6,0c-0.5-0.5-0.4-1,0-1.5c1.2-1.8,3-2.5,5-2.8C122.2,81.2,122.9,81.2,123.2,81.2z"/>
	<path class="st3" d="M165.6,84.1h-17.8V61.7c0-0.9-0.7-1.6-1.6-1.6h-0.8c-0.9,0-1.6,0.7-1.6,1.6v22.4h-17.5c-2,0-3.6,1.6-3.6,3.6   v18.8c0,2,1.6,3.6,3.6,3.6h39.3c2,0,3.6-1.6,3.6-3.6V87.7C169.2,85.7,167.6,84.1,165.6,84.1z"/>
	<path class="st4" d="M145,46.4c-22.3,0-40.3,18.1-40.3,40.3c0,22.3,18.1,40.3,40.3,40.3c22.3,0,40.3-18.1,40.3-40.3   C185.4,64.4,167.3,46.4,145,46.4z M145,123.6c-20.4,0-36.9-16.5-36.9-36.9c0-20.4,16.5-36.9,36.9-36.9s36.9,16.5,36.9,36.9   C182,107.1,165.4,123.6,145,123.6z"/>
	<path class="st5" d="M172.3,68.1l-1.7-1.3c0,0-0.8-0.6-1.3,0l-0.8,1c-0.7,1-0.7,1.5-1.1,2.1c-0.4,0.6-1.6,2.4-3.6,3.5   c-0.8,0.4-1.7,0.4-2.8,1c-1.1,0.6-2.1,1.5-2.6,2.1l-4.9,6.4h12.1l0.5-0.6c0.5-0.6,1.1-1.9,1.3-3.1c0.3-1.2,0-2.1,0.2-2.9   c0.5-2.2,1.9-3.8,2.4-4.4c0.5-0.6,1-0.7,1.7-1.6l0.7-1C173.2,68.7,172.3,68.1,172.3,68.1z"/>
	<path class="st6" d="M156.3,76.6c0.5-0.6,1.1-1.5,2.2-2.1c0.4-0.2,0.9-0.5,1.2-0.6c0-0.8,0.2-1.6-0.6-2.2c-0.5-0.4-1.5-0.7-2.1-0.7   c-0.6,0.1-0.9,0.7-1.6,0.8c-0.3,0-1.3-0.5-1.3-0.5s-1.8-0.7-3,0.3c-1.2,1-1.4,5.2-1.4,5.2V83h2.1L156.3,76.6z"/>
	<path class="st7" d="M141.6,83v-5c0,0-0.1,0-0.1,0c-2.9,0-5.3,2.1-5.3,4.7c0,0.1,0,0.2,0,0.3C136.2,83,141.6,83,141.6,83z"/>
	<path class="st7" d="M134.7,82.7c0-1.8,0.8-3.4,2.1-4.5c-0.9-0.7-2.1-1.2-3.4-1.2c-2.9,0-5.2,2.2-5.2,5c0,0.4,0,0.7,0.1,1h6.4   C134.7,82.9,134.7,82.8,134.7,82.7z"/>
	<path class="st7" d="M141.6,74.2c-0.8-0.3-1.8-0.5-2.8-0.5c-2.2,0-4.1,0.8-5.2,2.1c0.1,0,0.1,0,0.2,0c1.7,0,3.2,0.6,4.1,1.6   c0,0,1.1-0.8,2.2-1c0.7-0.1,1.6-0.1,1.6-0.1L141.6,74.2L141.6,74.2z"/>
	<path class="st0" d="M172.1,77.3c0.7,0,1.3,0,1.8,0.4c0.2,0.1,0.5,0.4,0.5,0.5c0,0-0.1,0.2-0.1,0.3c-0.3,0.8-0.3,1.2,0.3,2.1   c0.9,1.4,0.8,1.9,0,3c-0.5,0.6-1,1.2-1.5,1.8c-0.8,0.9-1.6,0.9-2.4,0c-0.7-0.8-1.1-1.7-2.2-2.2c-0.3-0.1-0.1-0.4,0-0.6   c0.5-1.5,1.1-2.9,1.4-4.5c0-0.3,0.2-0.5,0.5-0.5C171,77.4,171.4,77.3,172.1,77.3z"/>
	<g>
		<path class="st8" d="M66.7,141.7c0.1-0.2,0.2-0.4,0.3-0.5c1-2,1.9-4,2.9-6.1c0.9-1.7,2.9-2.4,4.6-1.4c0.9,0.5,1.3,1.4,1.5,2.4    c0.8,4.3,1.6,8.6,2.4,13c0.3,1.7-0.8,3.2-2.5,3.6c-1.8,0.4-3.5-0.7-3.9-2.4c-0.2-1-0.4-2-0.6-3.1c0-0.1-0.1-0.3-0.1-0.5    c-0.3,0.9-0.6,1.6-0.9,2.3c-0.2,0.6-0.4,1.2-0.7,1.7c-0.6,1.3-1.6,2-3.1,2c-1.5,0-2.4-0.8-3-2.1c-0.5-1.1-0.9-2.3-1.3-3.4    c-0.1-0.1-0.1-0.3-0.3-0.4c-0.1,0.6-0.2,1.2-0.3,1.8c-0.1,0.6-0.2,1.2-0.4,1.7c-0.5,1.7-1.9,2.5-3.7,2.3c-1.5-0.2-2.6-1.6-2.6-3.2    c0-1.2,0.3-2.4,0.5-3.6c0.6-3.2,1.1-6.3,1.7-9.5c0.2-1.3,0.8-2.5,2.2-2.9c1.6-0.5,3.4,0.3,4.2,1.9c0.9,1.9,1.8,3.9,2.7,5.9    C66.5,141.3,66.5,141.5,66.7,141.7z"/>
		<path class="st8" d="M202.9,145.1c0,1.2,0,2.4,0,3.5c0,0.4,0,0.8,0,1.2c-0.2,1.7-1.6,2.8-3.3,2.7c-1.8-0.1-3-1.4-3.1-3.2    c0-1,0-2,0-3c0-3.2,0-6.5,0-9.7c0-2.2,1.6-3.6,3.8-3.3c0.9,0.1,1.5,0.6,2,1.2c1.5,1.8,3,3.6,4.6,5.5c0.2,0.2,0.4,0.4,0.6,0.6    c0-0.2,0-0.3,0-0.5c0-1.2,0-2.5,0-3.7c0-1.5,1.1-2.8,2.5-3.1c1.4-0.3,2.9,0.4,3.5,1.7c0.2,0.5,0.3,1,0.3,1.5c0,4.2,0,8.5,0,12.7    c0,2.8-2.4,3.7-4.2,3.2c-0.7-0.2-1.2-0.7-1.7-1.2c-1.5-1.9-3.1-3.8-4.6-5.7c-0.1-0.1-0.2-0.3-0.4-0.4    C203,145.1,203,145.1,202.9,145.1z"/>
		<path class="st8" d="M122.9,133c2.4,0,5,1.2,7.1,3.4c0.9,1,1.4,2.1,1.1,3.5c-0.3,1.2-1.1,1.9-2.3,2.2c-1.2,0.3-2.3,0.1-3.1-0.9    c-0.7-0.9-1.5-1.6-2.7-1.8c-2.1-0.4-4.2,0.9-4.6,3c-0.4,2,1,3.9,3.1,4.3c1.3,0.2,2.4-0.1,3.4-1c0.3-0.3,0.6-0.6,1-0.9    c0.9-0.9,2.4-1.1,3.5-0.5c1.2,0.6,1.9,1.7,1.8,3c-0.1,0.9-0.5,1.7-1.2,2.3c-2.9,2.9-6.3,4.1-10.3,3.1c-3.8-0.9-6.5-3.3-7.6-7.2    c-1.3-4.6,1.2-9.6,5.7-11.6C119.4,133.3,120.8,133,122.9,133z"/>
		<path class="st8" d="M86.2,139.3c0,0.5,0,0.9,0,1.3c0.2,0,0.4,0,0.5,0c0.9,0,1.9,0,2.8,0.1c1.2,0.1,1.9,1.1,1.9,2.2    c-0.1,1.2-0.9,2.1-2.1,2.1c-0.9,0-1.8,0-2.6,0c-0.3,0-0.5,0.1-0.4,0.5c0,0.3,0,0.7,0,1.1c0.4,0,0.8,0,1.2,0c1,0,2,0,2.9,0.1    c1.5,0.1,2.6,1.4,2.6,3c0,1.5-1.1,2.7-2.7,2.7c-2.6,0-5.1,0-7.7,0c-1.4,0-2.5-1.1-2.7-2.6c-0.1-0.4-0.1-0.8-0.1-1.1    c0-3.9,0-7.8,0-11.7c0-0.6,0.1-1.1,0.3-1.7c0.4-1.1,1.3-1.7,2.4-1.8c2.6-0.1,5.2-0.1,7.8,0c1.5,0,2.7,1.3,2.7,2.8    c0,1.6-1.1,2.8-2.7,2.9c-1.2,0.1-2.3,0.1-3.5,0.1C86.6,139.3,86.4,139.3,86.2,139.3z"/>
		<path class="st8" d="M193.7,139c-2.1-4.5-7-6.8-12-5.7c-5.7,1.3-9.1,7-7.4,12.6c1.6,5,6.6,7.9,11.6,7c5.1-0.9,8.6-4.8,8.7-9.6    C194.6,141.6,194.3,140.2,193.7,139z M184.2,146.8c-2.1,0-3.9-1.8-3.9-3.8c0-2,1.8-3.7,3.9-3.7c2.2,0,3.9,1.6,3.9,3.7    C188.2,145,186.4,146.8,184.2,146.8z"/>
		<path class="st8" d="M172,142c-0.5-4.6-4.3-8.3-9-8.5c-1.7-0.1-3.4-0.1-5.1-0.1c-0.4,0-0.9,0-1.3,0.1c-1.6,0.2-2.6,1.4-2.6,3    c0,2.1,0,4.3,0,6.4c0,0,0,0,0,0c0,2.2,0,4.3,0,6.5c0,1.7,1.2,2.9,2.8,3c1.4,0.1,2.8,0.1,4.2,0.1c1.2,0,2.5-0.1,3.7-0.3    C169.3,151.1,172.4,146.7,172,142z M165.6,143c-0.1,1.6-1.2,3.1-2.6,3.4c-0.8,0.2-1.7,0.2-2.6,0.2c0-2.5,0-4.9,0-7.5    c0.9,0.1,1.9,0.1,2.7,0.3C164.6,139.9,165.7,141.5,165.6,143z"/>
		<path class="st8" d="M109.7,147.8c-0.4-0.7-0.8-1.3-1.3-2c-0.4-0.6-0.4-0.6,0.1-1.2c1.7-2,2.1-4.2,1.2-6.6c-1-2.5-2.8-4.1-5.5-4.4    c-2-0.2-4-0.2-6-0.2c-1.6,0-2.7,1.1-3,2.5c-0.1,0.5-0.1,0.9-0.1,1.4c0,3.6,0,7.2,0,10.8c0,0.5,0,1,0,1.5c0.1,1.6,1.3,2.8,2.9,2.9    c1.6,0.1,3-0.8,3.4-2.3c0.1-0.4,0.1-0.8,0.1-1.1c0-0.7,0-1.4,0-2.1c0,0,0.1,0,0.1,0c0.1,0.1,0.1,0.2,0.2,0.3    c0.8,1.3,1.6,2.6,2.5,3.9c0.8,1.3,2.3,1.8,3.8,1.2C110,151.8,110.8,149.6,109.7,147.8z M102.9,141.3c-0.4,0.1-0.8,0.1-1.3,0.1    c0-0.7,0-1.4,0-2.1c0.4,0,0.8,0,1.2,0.1c0.6,0.1,1,0.4,1,0.9C103.9,140.8,103.5,141.2,102.9,141.3z"/>
		<path class="st8" d="M152,148.1c-2-4.2-4.1-8.5-6.1-12.7c-0.6-1.3-1.7-2.1-3.1-2.1c-1.5,0-2.4,0.8-3.1,2.1    c-1.7,3.5-3.4,6.9-5,10.4c-0.4,0.8-0.8,1.6-1.1,2.4c-0.7,1.6,0,3.4,1.5,4.1c1.6,0.8,3.3,0.3,4.2-1.2c0.2-0.2,0.3-0.5,0.4-0.8    c0.1-0.1,0.3-0.3,0.5-0.3c1.8,0,3.6,0,5.4,0c0.2,0,0.4,0.1,0.5,0.3c0.3,0.4,0.4,0.8,0.7,1.1c0.8,1.1,2.1,1.5,3.5,1.1    c1.3-0.4,2.2-1.6,2.2-3C152.3,149,152.2,148.5,152,148.1z M141.7,145.4c0.3-0.8,0.7-1.5,1-2.3c0.4,0.8,0.7,1.6,1,2.3    C143,145.4,142.4,145.4,141.7,145.4z"/>
		<path class="st8" d="M234.6,148.1c-2.1-4.3-4.1-8.5-6.2-12.8c-0.6-1.3-1.6-2-3-2c-1.5,0-2.4,0.8-3.1,2.1c-1.3,2.8-2.7,5.6-4,8.3    c-0.7,1.5-1.5,3-2.1,4.5c-0.7,1.6-0.2,3.3,1.3,4.1c1.5,0.8,3.3,0.4,4.3-1.1c0.2-0.3,0.3-0.6,0.5-0.9c0.1-0.1,0.3-0.3,0.5-0.3    c1.8,0,3.6,0,5.4,0c0.3,0,0.4,0.1,0.5,0.3c0.2,0.4,0.4,0.8,0.7,1.2c0.8,1.1,2.2,1.4,3.5,1c1.3-0.5,2.1-1.6,2.2-3    C234.9,149,234.8,148.5,234.6,148.1z M224.4,145.4c0.3-0.8,0.7-1.5,1-2.3c0.4,0.8,0.7,1.5,1,2.3    C225.7,145.4,225.1,145.4,224.4,145.4z"/>
	</g>
</g>
</svg>