<svg viewBox="0 0 14 14" xmlns="http://www.w3.org/2000/svg"><path d="m2.14285707 5.85714284h-.57142858v-2.57142861c0-.494.29857143-1.42857145 1.42857145-1.42857145h8.00000012c.494 0 1.42857145.35828572 1.42857145 1.71428574v2.28571432h-.57142858v-2.28571432c0-1.1297143-.82200001-1.14285716-.85714287-1.14285716h-8.00000012c-.80657144 0-.85542858.71542858-.85714287.85885716z" fill="#546e7a"/><path d="m9.72428576 5.85714284c-.36428572 1.15885716-1.4454286 2.00000003-2.72428576 2.00000003s-2.36000004-.84114287-2.72428576-2.00000003h-2.99000004l1.3774286 6.28571438h8.6734287l1.3777143-6.28571438zm-2.43857147 5.42857151h-.57142858v-1.14285716h.57142858zm0-1.71428574h-.57142858v-1.14285716h.57142858zm1.42857145 1.71428574h-.57142858v-1.14285716h.57142858zm0-1.71428574h-.57142858v-1.14285716h.57142858zm1.42857145 1.71428574h-.57142858v-1.14285716h.57142858zm0-1.71428574h-.57142858v-1.14285716h.57142858zm-4.28571435 1.71428574h-.57142858v-1.14285716h.57142858zm0-1.71428574h-.57142858v-1.14285716h.57142858zm-1.42857145 1.71428574h-.57142858v-1.14285716h.57142858zm0-1.71428574h-.57142858v-1.14285716h.57142858z" fill="#e91e63"/><path d="m12.42857151 5.57142855h-3.81400006c-.23571429.66542858-.86857144 1.14285716-1.61457145 1.14285716s-1.37914288-.47742858-1.61457145-1.14285716h-3.81400006c-.31542858 0-.57142858.256-.57142858.57142858v.28571429c0 .31542858.256.57142858.57142858.57142858h2.9811429c.55685715.66714287 1.39828574 1.14285716 2.44742861 1.14285716s1.89057146-.4757143 2.4474286-1.14285716h2.98114291c.31542858 0 .57142858-.256.57142858-.57142858v-.28571429c0-.31542858-.256-.57142858-.57142858-.57142858z" fill="#ad1457"/></svg>