<?xml version="1.0" encoding="UTF-8"?>
<!-- Generator: Adobe Illustrator 16.0.0, SVG Export Plug-In . SVG Version: 6.00 Build 0)  -->
<!DOCTYPE svg PUBLIC "-//W3C//DTD SVG 1.1//EN" "http://www.w3.org/Graphics/SVG/1.1/DTD/svg11.dtd">
<svg version="1.1" id="Ebene_1" xmlns="http://www.w3.org/2000/svg" xmlns:xlink="http://www.w3.org/1999/xlink" x="0px" y="0px" width="290px" height="200px" viewBox="0 0 290 200" enable-background="new 0 0 290 200" xml:space="preserve">
<g>
	
		<linearGradient id="banner_1_" gradientUnits="userSpaceOnUse" x1="275.8838" y1="-295.606" x2="401.2454" y2="-170.2444" gradientTransform="matrix(1 0 0 -1 -205.5 -128)">
		<stop offset="0" style="stop-color:#005820"/>
		<stop offset="0.495" style="stop-color:#00802C"/>
		<stop offset="1" style="stop-color:#046220"/>
	</linearGradient>
	<path id="banner" fill="url(#banner_1_)" d="M48.869,88.266l-3.678,54.149c57.623-35.556,133.637,19.616,177.163-25.951v-47.61   c-70.088,22.886-94.473,1.13-138.036,7.433C72.59,77.983,60.831,81.548,48.869,88.266z"/>
	<g id="clover">
		
			<radialGradient id="SVGID_1_" cx="418.5547" cy="-212.1484" r="28.5241" gradientTransform="matrix(1 0 0 -1 -205.5 -128)" gradientUnits="userSpaceOnUse">
			<stop offset="0" style="stop-color:#7EC201"/>
			<stop offset="0.1446" style="stop-color:#75BB04"/>
			<stop offset="0.3817" style="stop-color:#5CA90D"/>
			<stop offset="0.6821" style="stop-color:#348B1B"/>
			<stop offset="1" style="stop-color:#02662C"/>
		</radialGradient>
		<path fill="url(#SVGID_1_)" d="M220.93,112.439c-4.201,0-8.32-2.11-10.5-5.377c-1.635-2.451-1.947-5.24-0.885-7.862l0.057-0.246    l-0.221,0.526c-1.67,4.211-5.451,6.737-10.109,6.738h-0.002c-4.177,0-8.275-2.087-10.443-5.315    c-1.908-2.842-2.233-6.358-0.938-9.961c-3.5-3.897-4.502-8.462-2.738-12.609c1.83-4.306,6.412-7.313,11.142-7.313    c2.313,0,4.54,0.701,6.502,2.038c-1.676-2.805-1.749-6.522-0.121-10.023c2.028-4.359,6.138-7.176,10.47-7.176    c3.088,0,6.252,1.385,9.176,4.012c0.281-0.008,0.562-0.013,0.834-0.013c7.488,0,12.578,3.376,13.617,9.031    c0.926,5.051-1.742,10.37-6.156,12.56c0.265-0.022,0.531-0.034,0.797-0.034c5.021,0,9.438,4.184,10.27,9.732    c0.711,4.742-1.352,10.667-9.197,13.261c-2.39,5.11-6.576,8.032-11.549,8.032C220.932,112.439,220.93,112.439,220.93,112.439z"/>
		<path fill="#00551F" d="M213.143,56.857c2.711,0,5.73,1.158,8.801,4.027c0.412-0.019,0.815-0.028,1.207-0.028    c16.707,0,15.137,16.658,6.209,20.048l-11.809,3.479l12.362-1.839c0.508-0.088,1.008-0.13,1.495-0.13    c9.707,0,14.938,16.702,0.344,21.176c-2.48,5.661-6.729,7.85-10.82,7.85c-6.691,0-12.967-5.849-10.431-11.936l2.656-11.647    l-4.699,11.238c-1.69,4.266-5.396,6.124-9.188,6.124c-6.74,0-13.756-5.87-10.225-14.501c-8.468-8.786-1.072-18.697,7.245-18.698    c2.321,0,4.713,0.771,6.854,2.555l8.787,8.173l-7.562-9.195C199.441,67.701,204.846,56.857,213.143,56.857 M213.143,54.857    c-4.721,0-9.186,3.044-11.377,7.754c-1.293,2.78-1.592,5.697-0.938,8.273c-1.442-0.571-2.971-0.865-4.535-0.865    c-5.202,0.001-10.049,3.185-12.062,7.923c-1.854,4.363-0.928,9.123,2.527,13.222c-1.179,3.713-0.753,7.329,1.237,10.294    c2.385,3.553,6.706,5.76,11.276,5.76c3.518,0,6.578-1.323,8.737-3.67c0.196,1.401,0.729,2.776,1.589,4.067    c2.358,3.537,6.807,5.822,11.334,5.822c5.25,0,9.68-2.982,12.27-8.223c3.414-1.212,6.068-3.191,7.713-5.759    c1.578-2.466,2.201-5.471,1.753-8.46c-0.784-5.231-4.526-9.348-9.103-10.35c3.25-2.866,5.002-7.5,4.188-11.941    c-0.424-2.311-2.729-9.851-14.602-9.851c-0.153,0-0.31,0.001-0.467,0.004C219.657,56.238,216.373,54.857,213.143,54.857    L213.143,54.857z"/>
	</g>
	<path id="banner_x5F_small_x5F_back" fill="#B4CF00" d="M48.46,142.824c0,0,27.79-13.896,72.132-9.809   C86.876,145.889,48.46,142.824,48.46,142.824z"/>
	<path id="r" fill="#FFFFFF" d="M131.998,119.6c0,0-0.459,0.297-1.689,0.356c-4.37-0.226-5.054-0.774-5.054-0.774   s0.882-13.105,0.854-13.744c0.02-1.113-1.298-2.252-1.353-2.635c-0.055-0.383,1.921-2.633,1.921-2.633s4.048,0.4,4.863,3.749   c0.041,0.166,0.437,0.167,0.536,0.022c1.471-4.042,6.286-2.996,7.484-2.207c0.375,1.099-1.779,5.268-1.779,5.268   s-4.057-1.852-5.623,1.21C131.693,109.792,131.998,119.6,131.998,119.6z"/>
	<path id="T_x5F_2" fill="#FFFFFF" d="M107.817,92.554c-0.644,1.91,0,4.912,0,4.912h6.263l-1.067,21.28c0,0,0.711,0.355,3.203,0.427   c2.492,0.071,3.346-0.354,3.346-0.354l1.031-20.854l4.093,0.427c0,0,1.067,0.115,2.129-0.448c1.234-0.628,1.534-3.547,1.27-4.249   L107.817,92.554z"/>
	<path id="u" fill="#B3CF00" d="M79.315,96.644c1.313,2.125,0.341,2.347,0,14.795c-0.34,12.449,12.737,4.14,12.874,2.777   c2.588,4.086,5.926,2.655,5.926,2.655l2.248-3.271c0,0-1.712-0.371-1.43-3.473l1.43-15.734H93.62l-1.635,15.121   c-2.792,2.521-5.427,1.965-5.312-0.203l0.613-11.647c0.069-2.157-0.525-2.751-1.905-3.072   C83.738,94.21,81.415,94.732,79.315,96.644z"/>
	<path id="T_x5F_1" fill="#B4CF00" d="M66.646,96.03l-7.561,2.656c0,0-0.014-5.754,0.408-6.334   c0.422-0.582,9.604-4.087,23.295-5.722c0.049,6.539-1.69,6.33-4.7,7.05l-3.881,0.92l-2.043,25.337l-7.561,2.043L66.646,96.03z"/>
	<path id="e" fill="#FFFFFF" d="M148.178,101.344c-6.334,0.204-8.981,4.682-8.991,10.318c-0.01,5.637,2.554,10.318,9.399,10.318   c2.555,0,7.562-2.024,7.562-2.024l-1.84-3.697c0,0-8.175,2.862-8.584-2.45h10.424C156.146,113.809,160.029,101.548,148.178,101.344   z M151.038,109.618l-5.21-0.408c0,0-0.205-3.271,2.604-3.342C151.243,105.795,151.038,109.618,151.038,109.618z"/>
	<path id="b" fill="#FFFFFF" d="M176.684,110.641c-0.511-13.487-11.342-7.051-11.342-7.051s0.512-4.392,0.512-7.253   c0-2.86-2.451-2.758-2.451-2.758h-3.576l-1.432,27.073c0,0,10.013,4.293,15.562-1.811   C175.654,117.167,176.76,114.573,176.684,110.641z M170.35,111.439c-0.205,7.438-4.199,6.25-5.928,6.25l0.512-9.399   C164.934,108.29,170.553,103.999,170.35,111.439z"/>
	<path id="o" fill="#FFFFFF" d="M188.637,100.04c-4.938,0-9.707,5.828-9.707,10.511c0,5.805,0.846,10.355,6.488,10.92   c6.488,0.648,11.598-4.599,11.598-12.771C197.016,100.17,193.573,100.04,188.637,100.04z M190.682,108.494   c-0.408,3.779,0.101,7.765-3.781,7.867c-2.452,0.103-2.043-5.606-2.043-5.606s-0.205-5.427,3.474-5.938   C190.697,104.307,190.788,107.355,190.682,108.494z"/>
	<path id="l" fill="#FFFFFF" d="M200.693,88.163c0,0,5.57-3.072,5.414,0.409l-0.92,20.433c0,0-0.307,3.138,2.86,1.058   c0.649,2.666,0,4.053,0,4.053s-2.248,2.35-6.437,2.963c-1.84,0.307-2.352-2.657-2.352-2.657L200.693,88.163z"/>
	<path fill="#FFFFFF" d="M146.134,97.256l6.999-2.109c1.768,0.157,1.83,3.481,1.379,3.562c-0.449,0.081-7.145,1.052-7.145,1.052   C145.566,99.632,146.134,97.256,146.134,97.256z"/>
</g>
</svg>